<svg xmlns="http://www.w3.org/2000/svg" viewBox="0 0 30 36" fill="none" stroke="#55634A" stroke-width="2.2" stroke-linecap="round">
  <path d="M15.5 34 C 14.6 27.5, 14 21, 14.2 15.5 C 14.4 11.5, 15 8.6, 16.6 7"/>
  <path d="M16.6 7 C 18.7 5.2, 21.6 6, 22 8.6 C 22.35 10.9, 20.4 12.4, 18.5 11.7 C 17 11.15, 16.7 9.3, 17.9 8.5 C 18.8 7.9, 19.9 8.4, 19.9 9.4"/>
  <path d="M14.7 30.5 C 12 30, 10 28.3, 9.4 25.7"/>
  <path d="M14.4 26 C 12.1 25.5, 10.5 24, 10 21.9"/>
  <path d="M14.25 21.5 C 12.3 21, 11 19.7, 10.6 18"/>
  <path d="M14.3 17.3 C 12.8 16.9, 11.8 15.9, 11.5 14.5"/>
  <path d="M15 30.5 C 17.7 30, 19.7 28.3, 20.3 25.7"/>
  <path d="M14.9 26 C 17.2 25.5, 18.8 24, 19.3 21.9"/>
  <path d="M14.8 21.5 C 16.7 21, 18 19.7, 18.4 18"/>
</svg>
